<mxfile host="65bd71144e">
    <diagram id="RFHooRmqU4Mm2QUR4nSg" name="Page-1">
        <mxGraphModel dx="473" dy="711" grid="1" gridSize="10" guides="1" tooltips="1" connect="1" arrows="1" fold="1" page="1" pageScale="1" pageWidth="850" pageHeight="1100" math="0" shadow="0">
            <root>
                <mxCell id="0"/>
                <mxCell id="1" parent="0"/>
                <mxCell id="50" style="edgeStyle=none;html=1;fontColor=#FFFF33;strokeColor=#FF9933;" edge="1" parent="1" source="53gvowDlxKupPZNZGqY5-2" target="53gvowDlxKupPZNZGqY5-4">
                    <mxGeometry relative="1" as="geometry"/>
                </mxCell>
                <mxCell id="53gvowDlxKupPZNZGqY5-2" value="service-decoding" style="outlineConnect=0;dashed=0;verticalLabelPosition=bottom;verticalAlign=top;align=center;html=1;shape=mxgraph.aws3.hardware_board;fillColor=#5294CF;gradientColor=none;fontColor=#FFFF33;" parent="1" vertex="1">
                    <mxGeometry x="40" y="22.5" width="84" height="100.5" as="geometry"/>
                </mxCell>
                <mxCell id="51" style="edgeStyle=none;html=1;entryX=0;entryY=0.5;entryDx=0;entryDy=0;entryPerimeter=0;fontColor=#FFFF33;strokeColor=#FF9933;" edge="1" parent="1" source="53gvowDlxKupPZNZGqY5-4" target="53gvowDlxKupPZNZGqY5-16">
                    <mxGeometry relative="1" as="geometry"/>
                </mxCell>
                <mxCell id="54" style="edgeStyle=none;html=1;entryX=0.5;entryY=0;entryDx=0;entryDy=0;entryPerimeter=0;fontColor=#FFFF33;strokeColor=#FF9933;dashed=1;" edge="1" parent="1" source="53gvowDlxKupPZNZGqY5-4" target="53gvowDlxKupPZNZGqY5-8">
                    <mxGeometry relative="1" as="geometry"/>
                </mxCell>
                <mxCell id="55" style="edgeStyle=none;html=1;entryX=0.5;entryY=0;entryDx=0;entryDy=0;entryPerimeter=0;fontColor=#FFFF33;strokeColor=#FF9933;" edge="1" parent="1" source="53gvowDlxKupPZNZGqY5-4" target="53gvowDlxKupPZNZGqY5-6">
                    <mxGeometry relative="1" as="geometry"/>
                </mxCell>
                <mxCell id="57" value="analytics" style="edgeStyle=none;html=1;fontColor=#33FFFF;strokeColor=#FF9933;labelBackgroundColor=none;" edge="1" parent="1" source="53gvowDlxKupPZNZGqY5-4" target="56">
                    <mxGeometry relative="1" as="geometry"/>
                </mxCell>
                <mxCell id="53gvowDlxKupPZNZGqY5-4" value="service-stream" style="sketch=0;points=[[0,0,0],[0.25,0,0],[0.5,0,0],[0.75,0,0],[1,0,0],[0,1,0],[0.25,1,0],[0.5,1,0],[0.75,1,0],[1,1,0],[0,0.25,0],[0,0.5,0],[0,0.75,0],[1,0.25,0],[1,0.5,0],[1,0.75,0]];outlineConnect=0;fontColor=#99FF33;gradientColor=#945DF2;gradientDirection=north;fillColor=#5A30B5;strokeColor=#ffffff;dashed=0;verticalLabelPosition=bottom;verticalAlign=top;align=center;html=1;fontSize=12;fontStyle=0;aspect=fixed;shape=mxgraph.aws4.resourceIcon;resIcon=mxgraph.aws4.managed_streaming_for_kafka;" parent="1" vertex="1">
                    <mxGeometry x="353.25" y="33.75" width="78" height="78" as="geometry"/>
                </mxCell>
                <mxCell id="53gvowDlxKupPZNZGqY5-6" value="database-cache" style="outlineConnect=0;dashed=0;verticalLabelPosition=bottom;verticalAlign=top;align=center;html=1;shape=mxgraph.aws3.redis;fillColor=#2E73B8;gradientColor=none;fontColor=#99FF33;" parent="1" vertex="1">
                    <mxGeometry x="497.25" y="192.5" width="60" height="63" as="geometry"/>
                </mxCell>
                <mxCell id="103" style="edgeStyle=none;html=1;fontColor=#99FF33;strokeColor=#FF9933;" edge="1" parent="1" source="53gvowDlxKupPZNZGqY5-8" target="100">
                    <mxGeometry relative="1" as="geometry"/>
                </mxCell>
                <mxCell id="53gvowDlxKupPZNZGqY5-8" value="database-hardware" style="sketch=0;points=[[0,0,0],[0.25,0,0],[0.5,0,0],[0.75,0,0],[1,0,0],[0,1,0],[0.25,1,0],[0.5,1,0],[0.75,1,0],[1,1,0],[0,0.25,0],[0,0.5,0],[0,0.75,0],[1,0.25,0],[1,0.5,0],[1,0.75,0]];outlineConnect=0;fontColor=#99FF33;gradientColor=#4D72F3;gradientDirection=north;fillColor=#3334B9;strokeColor=#ffffff;dashed=0;verticalLabelPosition=bottom;verticalAlign=top;align=center;html=1;fontSize=12;fontStyle=0;aspect=fixed;shape=mxgraph.aws4.resourceIcon;resIcon=mxgraph.aws4.documentdb_with_mongodb_compatibility;" parent="1" vertex="1">
                    <mxGeometry x="353.25" y="360" width="78" height="78" as="geometry"/>
                </mxCell>
                <mxCell id="41" style="edgeStyle=none;html=1;fontColor=#FF9933;strokeColor=#FF9933;" edge="1" parent="1" source="53gvowDlxKupPZNZGqY5-11" target="6">
                    <mxGeometry relative="1" as="geometry"/>
                </mxCell>
                <mxCell id="98" style="edgeStyle=none;html=1;fontColor=#99FF33;strokeColor=#FF9933;" edge="1" parent="1" source="53gvowDlxKupPZNZGqY5-11">
                    <mxGeometry relative="1" as="geometry">
                        <mxPoint x="270.0000000000001" y="609.9999999999998" as="targetPoint"/>
                    </mxGeometry>
                </mxCell>
                <mxCell id="53gvowDlxKupPZNZGqY5-11" value="service-gateway" style="sketch=0;outlineConnect=0;fontColor=#FFFF33;gradientColor=none;fillColor=#4D27AA;strokeColor=none;dashed=0;verticalLabelPosition=bottom;verticalAlign=top;align=center;html=1;fontSize=12;fontStyle=0;aspect=fixed;pointerEvents=1;shape=mxgraph.aws4.virtual_gateway;" parent="1" vertex="1">
                    <mxGeometry x="411.75" y="680" width="78" height="78" as="geometry"/>
                </mxCell>
                <mxCell id="40" style="edgeStyle=none;html=1;fontColor=#FF9933;strokeColor=#FF9933;" edge="1" parent="1" source="53gvowDlxKupPZNZGqY5-14" target="53gvowDlxKupPZNZGqY5-11">
                    <mxGeometry relative="1" as="geometry"/>
                </mxCell>
                <mxCell id="66" style="edgeStyle=none;html=1;entryX=1;entryY=0.5;entryDx=0;entryDy=0;entryPerimeter=0;dashed=1;fontColor=#FFB366;strokeColor=#FF9933;" edge="1" parent="1" source="53gvowDlxKupPZNZGqY5-14" target="21">
                    <mxGeometry relative="1" as="geometry"/>
                </mxCell>
                <mxCell id="88" style="edgeStyle=none;html=1;entryX=1;entryY=0.25;entryDx=0;entryDy=0;fontColor=#99FF33;strokeColor=#FF9933;" edge="1" parent="1" source="53gvowDlxKupPZNZGqY5-14" target="32">
                    <mxGeometry relative="1" as="geometry"/>
                </mxCell>
                <mxCell id="95" style="edgeStyle=none;html=1;fontColor=#99FF33;strokeColor=#FF9933;" edge="1" parent="1" source="53gvowDlxKupPZNZGqY5-14" target="93">
                    <mxGeometry relative="1" as="geometry"/>
                </mxCell>
                <mxCell id="53gvowDlxKupPZNZGqY5-14" value="api-gateway" style="outlineConnect=0;dashed=0;verticalLabelPosition=bottom;verticalAlign=top;align=center;html=1;shape=mxgraph.aws3.api_gateway;fillColor=#D9A741;gradientColor=none;fontColor=#99FF33;" parent="1" vertex="1">
                    <mxGeometry x="411.75" y="830" width="76.5" height="93" as="geometry"/>
                </mxCell>
                <mxCell id="53gvowDlxKupPZNZGqY5-15" value="service-analytics" style="sketch=0;points=[[0,0,0],[0.25,0,0],[0.5,0,0],[0.75,0,0],[1,0,0],[0,1,0],[0.25,1,0],[0.5,1,0],[0.75,1,0],[1,1,0],[0,0.25,0],[0,0.5,0],[0,0.75,0],[1,0.25,0],[1,0.5,0],[1,0.75,0]];points=[[0,0,0],[0.25,0,0],[0.5,0,0],[0.75,0,0],[1,0,0],[0,1,0],[0.25,1,0],[0.5,1,0],[0.75,1,0],[1,1,0],[0,0.25,0],[0,0.5,0],[0,0.75,0],[1,0.25,0],[1,0.5,0],[1,0.75,0]];outlineConnect=0;fontColor=#99FF33;gradientColor=#F34482;gradientDirection=north;fillColor=#BC1356;strokeColor=#ffffff;dashed=0;verticalLabelPosition=bottom;verticalAlign=top;align=center;html=1;fontSize=12;fontStyle=0;aspect=fixed;shape=mxgraph.aws4.resourceIcon;resIcon=mxgraph.aws4.managed_service_for_grafana;" parent="1" vertex="1">
                    <mxGeometry x="690.38" y="33.75" width="78" height="78" as="geometry"/>
                </mxCell>
                <mxCell id="52" style="edgeStyle=none;html=1;entryX=0;entryY=0.5;entryDx=0;entryDy=0;entryPerimeter=0;fontColor=#FFFF33;strokeColor=#FF9933;" edge="1" parent="1" source="53gvowDlxKupPZNZGqY5-16" target="53gvowDlxKupPZNZGqY5-15">
                    <mxGeometry relative="1" as="geometry"/>
                </mxCell>
                <mxCell id="53gvowDlxKupPZNZGqY5-16" value="service-monitoring" style="sketch=0;points=[[0,0,0],[0.25,0,0],[0.5,0,0],[0.75,0,0],[1,0,0],[0,1,0],[0.25,1,0],[0.5,1,0],[0.75,1,0],[1,1,0],[0,0.25,0],[0,0.5,0],[0,0.75,0],[1,0.25,0],[1,0.5,0],[1,0.75,0]];points=[[0,0,0],[0.25,0,0],[0.5,0,0],[0.75,0,0],[1,0,0],[0,1,0],[0.25,1,0],[0.5,1,0],[0.75,1,0],[1,1,0],[0,0.25,0],[0,0.5,0],[0,0.75,0],[1,0.25,0],[1,0.5,0],[1,0.75,0]];outlineConnect=0;fontColor=#99FF33;gradientColor=#F34482;gradientDirection=north;fillColor=#BC1356;strokeColor=#ffffff;dashed=0;verticalLabelPosition=bottom;verticalAlign=top;align=center;html=1;fontSize=12;fontStyle=0;aspect=fixed;shape=mxgraph.aws4.resourceIcon;resIcon=mxgraph.aws4.managed_service_for_prometheus;" parent="1" vertex="1">
                    <mxGeometry x="520" y="33.75" width="78" height="78" as="geometry"/>
                </mxCell>
                <mxCell id="47" style="edgeStyle=none;html=1;fontColor=#FFFF33;strokeColor=#FF9933;" edge="1" parent="1" source="6" target="44">
                    <mxGeometry relative="1" as="geometry"/>
                </mxCell>
                <mxCell id="48" style="edgeStyle=none;html=1;fontColor=#FFFF33;strokeColor=#FF9933;" edge="1" parent="1" source="6" target="46">
                    <mxGeometry relative="1" as="geometry"/>
                </mxCell>
                <mxCell id="49" style="edgeStyle=none;html=1;fontColor=#FFFF33;strokeColor=#FF9933;" edge="1" parent="1" source="6" target="42">
                    <mxGeometry relative="1" as="geometry"/>
                </mxCell>
                <mxCell id="92" style="edgeStyle=none;html=1;fontColor=#99FF33;strokeColor=#FF9933;" edge="1" parent="1" source="6" target="90">
                    <mxGeometry relative="1" as="geometry"/>
                </mxCell>
                <mxCell id="6" value="gRPC" style="outlineConnect=0;dashed=0;verticalLabelPosition=bottom;verticalAlign=top;align=center;html=1;shape=mxgraph.aws3.customer_gateway;fillColor=#F58534;gradientColor=none;labelBackgroundColor=none;fontColor=#FFFF33;" vertex="1" parent="1">
                    <mxGeometry x="630" y="680" width="69" height="72" as="geometry"/>
                </mxCell>
                <mxCell id="84" style="edgeStyle=none;html=1;fontColor=#99FF33;strokeColor=#FF9933;" edge="1" parent="1" source="18" target="53gvowDlxKupPZNZGqY5-14">
                    <mxGeometry relative="1" as="geometry"/>
                </mxCell>
                <mxCell id="18" value="mobile-application" style="verticalLabelPosition=bottom;verticalAlign=top;html=1;shadow=0;dashed=0;strokeWidth=1;shape=mxgraph.android.phone2;strokeColor=#c0c0c0;labelBackgroundColor=none;fontColor=#FFFF33;" vertex="1" parent="1">
                    <mxGeometry x="630" y="1010" width="27.14" height="50" as="geometry"/>
                </mxCell>
                <mxCell id="82" style="edgeStyle=none;html=1;fontColor=#99FF33;strokeColor=#FF9933;" edge="1" parent="1" source="20" target="53gvowDlxKupPZNZGqY5-14">
                    <mxGeometry relative="1" as="geometry"/>
                </mxCell>
                <mxCell id="20" value="desktop-application" style="sketch=0;outlineConnect=0;gradientColor=none;fontColor=#FFFF33;strokeColor=none;fillColor=#879196;dashed=0;verticalLabelPosition=bottom;verticalAlign=top;align=center;html=1;fontSize=12;fontStyle=0;aspect=fixed;shape=mxgraph.aws4.illustration_desktop;pointerEvents=1;labelBackgroundColor=none;" vertex="1" parent="1">
                    <mxGeometry x="620" y="810" width="65.93" height="60" as="geometry"/>
                </mxCell>
                <mxCell id="76" style="edgeStyle=none;html=1;fontColor=#FFB366;strokeColor=#FF9933;" edge="1" parent="1" source="21" target="75">
                    <mxGeometry relative="1" as="geometry"/>
                </mxCell>
                <mxCell id="21" value="authentication-service" style="fillColor=#28A8E0;verticalLabelPosition=bottom;sketch=0;html=1;strokeColor=#ffffff;verticalAlign=top;align=center;points=[[0.145,0.145,0],[0.5,0,0],[0.855,0.145,0],[1,0.5,0],[0.855,0.855,0],[0.5,1,0],[0.145,0.855,0],[0,0.5,0]];pointerEvents=1;shape=mxgraph.cisco_safe.compositeIcon;bgIcon=ellipse;resIcon=mxgraph.cisco_safe.capability.identity_authorization;labelBackgroundColor=none;fontColor=#99FF33;" vertex="1" parent="1">
                    <mxGeometry x="147.5" y="720" width="43" height="43" as="geometry"/>
                </mxCell>
                <mxCell id="89" style="edgeStyle=none;html=1;fontColor=#99FF33;strokeColor=#FF9933;" edge="1" parent="1" source="30">
                    <mxGeometry relative="1" as="geometry">
                        <mxPoint x="490" y="890.0000000000002" as="targetPoint"/>
                    </mxGeometry>
                </mxCell>
                <mxCell id="30" value="web-application" style="aspect=fixed;html=1;points=[];align=center;image;fontSize=12;image=img/lib/azure2/general/Browser.svg;labelBackgroundColor=none;fontColor=#FFFF33;" vertex="1" parent="1">
                    <mxGeometry x="610.9300000000001" y="905.5" width="75" height="60" as="geometry"/>
                </mxCell>
                <mxCell id="32" value="api-portal" style="aspect=fixed;perimeter=ellipsePerimeter;html=1;align=center;shadow=0;dashed=0;fontColor=#FF9933;labelBackgroundColor=#ffffff;fontSize=12;spacingTop=3;image;image=img/lib/ibm/applications/api_developer_portal.svg;" vertex="1" parent="1">
                    <mxGeometry x="230" y="965.5" width="60" height="60" as="geometry"/>
                </mxCell>
                <mxCell id="77" style="edgeStyle=none;html=1;fontColor=#FFB366;strokeColor=#FF9933;" edge="1" parent="1" source="42" target="69">
                    <mxGeometry relative="1" as="geometry"/>
                </mxCell>
                <mxCell id="42" value="service-catalog" style="sketch=0;outlineConnect=0;fontColor=#FFFF33;gradientColor=none;fillColor=#B0084D;strokeColor=none;dashed=0;verticalLabelPosition=bottom;verticalAlign=top;align=center;html=1;fontSize=12;fontStyle=0;aspect=fixed;pointerEvents=1;shape=mxgraph.aws4.endpoint;labelBackgroundColor=none;" vertex="1" parent="1">
                    <mxGeometry x="470" y="511" width="78" height="78" as="geometry"/>
                </mxCell>
                <mxCell id="79" style="edgeStyle=none;html=1;fontColor=#FFB366;strokeColor=#FF9933;" edge="1" parent="1" source="44" target="74">
                    <mxGeometry relative="1" as="geometry"/>
                </mxCell>
                <mxCell id="44" value="service-order" style="sketch=0;outlineConnect=0;fontColor=#FFFF33;gradientColor=none;fillColor=#B0084D;strokeColor=none;dashed=0;verticalLabelPosition=bottom;verticalAlign=top;align=center;html=1;fontSize=12;fontStyle=0;aspect=fixed;pointerEvents=1;shape=mxgraph.aws4.endpoint;labelBackgroundColor=none;" vertex="1" parent="1">
                    <mxGeometry x="720" y="511" width="78" height="78" as="geometry"/>
                </mxCell>
                <mxCell id="78" style="edgeStyle=none;html=1;fontColor=#FFB366;strokeColor=#FF9933;" edge="1" parent="1" source="46" target="73">
                    <mxGeometry relative="1" as="geometry"/>
                </mxCell>
                <mxCell id="46" value="service-basket" style="sketch=0;outlineConnect=0;fontColor=#FFFF33;gradientColor=none;fillColor=#B0084D;strokeColor=none;dashed=0;verticalLabelPosition=bottom;verticalAlign=top;align=center;html=1;fontSize=12;fontStyle=0;aspect=fixed;pointerEvents=1;shape=mxgraph.aws4.endpoint;labelBackgroundColor=none;" vertex="1" parent="1">
                    <mxGeometry x="598" y="511" width="78" height="78" as="geometry"/>
                </mxCell>
                <mxCell id="56" value="machine-learning" style="sketch=0;aspect=fixed;html=1;points=[];align=center;image;fontSize=12;image=img/lib/mscae/Machine_Learning_Studio_Workspaces.svg;labelBackgroundColor=none;fontColor=#33FFFF;" vertex="1" parent="1">
                    <mxGeometry x="200" y="205.5" width="50" height="50" as="geometry"/>
                </mxCell>
                <mxCell id="59" style="edgeStyle=none;html=1;fontColor=#99FF33;strokeColor=#FF9933;" edge="1" parent="1" source="58" target="53gvowDlxKupPZNZGqY5-14">
                    <mxGeometry relative="1" as="geometry"/>
                </mxCell>
                <mxCell id="58" value="service-telemetry" style="sketch=0;outlineConnect=0;fontColor=#99FF33;gradientColor=none;fillColor=#3F8624;strokeColor=none;dashed=0;verticalLabelPosition=bottom;verticalAlign=top;align=center;html=1;fontSize=12;fontStyle=0;aspect=fixed;pointerEvents=1;shape=mxgraph.aws4.mqtt_protocol;labelBackgroundColor=none;" vertex="1" parent="1">
                    <mxGeometry x="20" y="837.5" width="78" height="78" as="geometry"/>
                </mxCell>
                <mxCell id="61" style="edgeStyle=none;html=1;fontColor=#FFB366;strokeColor=#FF9933;" edge="1" parent="1" source="60" target="58">
                    <mxGeometry relative="1" as="geometry"/>
                </mxCell>
                <mxCell id="60" value="mqtt-controller" style="sketch=0;outlineConnect=0;fontColor=#FFB366;gradientColor=none;fillColor=#3F8624;strokeColor=none;dashed=0;verticalLabelPosition=bottom;verticalAlign=top;align=center;html=1;fontSize=12;fontStyle=0;aspect=fixed;pointerEvents=1;shape=mxgraph.aws4.hardware_board;labelBackgroundColor=none;" vertex="1" parent="1">
                    <mxGeometry x="20" y="685" width="78" height="78" as="geometry"/>
                </mxCell>
                <mxCell id="104" style="edgeStyle=none;html=1;fontColor=#99FF33;strokeColor=#FF9933;" edge="1" parent="1" source="69" target="100">
                    <mxGeometry relative="1" as="geometry"/>
                </mxCell>
                <mxCell id="69" value="database-catalog" style="sketch=0;points=[[0,0,0],[0.25,0,0],[0.5,0,0],[0.75,0,0],[1,0,0],[0,1,0],[0.25,1,0],[0.5,1,0],[0.75,1,0],[1,1,0],[0,0.25,0],[0,0.5,0],[0,0.75,0],[1,0.25,0],[1,0.5,0],[1,0.75,0]];outlineConnect=0;fontColor=#99FF33;gradientColor=#4D72F3;gradientDirection=north;fillColor=#3334B9;strokeColor=#ffffff;dashed=0;verticalLabelPosition=bottom;verticalAlign=top;align=center;html=1;fontSize=12;fontStyle=0;aspect=fixed;shape=mxgraph.aws4.resourceIcon;resIcon=mxgraph.aws4.documentdb_with_mongodb_compatibility;" vertex="1" parent="1">
                    <mxGeometry x="470" y="360" width="78" height="78" as="geometry"/>
                </mxCell>
                <mxCell id="105" style="edgeStyle=none;html=1;fontColor=#99FF33;strokeColor=#FF9933;" edge="1" parent="1" source="73" target="100">
                    <mxGeometry relative="1" as="geometry"/>
                </mxCell>
                <mxCell id="73" value="database-basket" style="sketch=0;points=[[0,0,0],[0.25,0,0],[0.5,0,0],[0.75,0,0],[1,0,0],[0,1,0],[0.25,1,0],[0.5,1,0],[0.75,1,0],[1,1,0],[0,0.25,0],[0,0.5,0],[0,0.75,0],[1,0.25,0],[1,0.5,0],[1,0.75,0]];outlineConnect=0;fontColor=#99FF33;gradientColor=#4D72F3;gradientDirection=north;fillColor=#3334B9;strokeColor=#ffffff;dashed=0;verticalLabelPosition=bottom;verticalAlign=top;align=center;html=1;fontSize=12;fontStyle=0;aspect=fixed;shape=mxgraph.aws4.resourceIcon;resIcon=mxgraph.aws4.documentdb_with_mongodb_compatibility;" vertex="1" parent="1">
                    <mxGeometry x="598" y="360" width="78" height="78" as="geometry"/>
                </mxCell>
                <mxCell id="106" style="edgeStyle=none;html=1;fontColor=#99FF33;strokeColor=#FF9933;" edge="1" parent="1" source="74" target="100">
                    <mxGeometry relative="1" as="geometry"/>
                </mxCell>
                <mxCell id="74" value="database-order" style="sketch=0;points=[[0,0,0],[0.25,0,0],[0.5,0,0],[0.75,0,0],[1,0,0],[0,1,0],[0.25,1,0],[0.5,1,0],[0.75,1,0],[1,1,0],[0,0.25,0],[0,0.5,0],[0,0.75,0],[1,0.25,0],[1,0.5,0],[1,0.75,0]];outlineConnect=0;fontColor=#99FF33;gradientColor=#4D72F3;gradientDirection=north;fillColor=#3334B9;strokeColor=#ffffff;dashed=0;verticalLabelPosition=bottom;verticalAlign=top;align=center;html=1;fontSize=12;fontStyle=0;aspect=fixed;shape=mxgraph.aws4.resourceIcon;resIcon=mxgraph.aws4.documentdb_with_mongodb_compatibility;" vertex="1" parent="1">
                    <mxGeometry x="720" y="360" width="78" height="78" as="geometry"/>
                </mxCell>
                <mxCell id="101" style="edgeStyle=none;html=1;fontColor=#99FF33;strokeColor=#FF9933;" edge="1" parent="1" source="75" target="100">
                    <mxGeometry relative="1" as="geometry"/>
                </mxCell>
                <mxCell id="75" value="database-account" style="sketch=0;points=[[0,0,0],[0.25,0,0],[0.5,0,0],[0.75,0,0],[1,0,0],[0,1,0],[0.25,1,0],[0.5,1,0],[0.75,1,0],[1,1,0],[0,0.25,0],[0,0.5,0],[0,0.75,0],[1,0.25,0],[1,0.5,0],[1,0.75,0]];outlineConnect=0;fontColor=#99FF33;gradientColor=#4D72F3;gradientDirection=north;fillColor=#3334B9;strokeColor=#ffffff;dashed=0;verticalLabelPosition=bottom;verticalAlign=top;align=center;html=1;fontSize=12;fontStyle=0;aspect=fixed;shape=mxgraph.aws4.resourceIcon;resIcon=mxgraph.aws4.documentdb_with_mongodb_compatibility;" vertex="1" parent="1">
                    <mxGeometry x="130" y="360" width="78" height="78" as="geometry"/>
                </mxCell>
                <mxCell id="85" style="edgeStyle=none;html=1;entryX=1.004;entryY=0.52;entryDx=0;entryDy=0;entryPerimeter=0;fontColor=#99FF33;strokeColor=#FF9933;" edge="1" parent="1" source="80" target="30">
                    <mxGeometry relative="1" as="geometry"/>
                </mxCell>
                <mxCell id="86" style="edgeStyle=none;html=1;fontColor=#99FF33;strokeColor=#FF9933;" edge="1" parent="1" source="80" target="20">
                    <mxGeometry relative="1" as="geometry"/>
                </mxCell>
                <mxCell id="87" style="edgeStyle=none;html=1;entryX=1.179;entryY=0.6;entryDx=0;entryDy=0;entryPerimeter=0;fontColor=#99FF33;strokeColor=#FF9933;" edge="1" parent="1" source="80" target="18">
                    <mxGeometry relative="1" as="geometry"/>
                </mxCell>
                <mxCell id="80" value="service-cdn" style="aspect=fixed;html=1;points=[];align=center;image;fontSize=12;image=img/lib/azure2/app_services/CDN_Profiles.svg;dashed=1;dashPattern=1 1;labelBackgroundColor=none;fontColor=#99FF33;" vertex="1" parent="1">
                    <mxGeometry x="740" y="915.5" width="68" height="40" as="geometry"/>
                </mxCell>
                <mxCell id="91" value="&lt;font color=&quot;#99ffcc&quot;&gt;rpc&lt;/font&gt;" style="edgeStyle=none;html=1;fontColor=#99FF33;strokeColor=#FF9933;labelBackgroundColor=none;" edge="1" parent="1" source="90" target="53gvowDlxKupPZNZGqY5-8">
                    <mxGeometry relative="1" as="geometry"/>
                </mxCell>
                <mxCell id="90" value="service-telemetry" style="sketch=0;outlineConnect=0;fontColor=#FFFF33;gradientColor=none;fillColor=#B0084D;strokeColor=none;dashed=0;verticalLabelPosition=bottom;verticalAlign=top;align=center;html=1;fontSize=12;fontStyle=0;aspect=fixed;pointerEvents=1;shape=mxgraph.aws4.endpoint;labelBackgroundColor=none;" vertex="1" parent="1">
                    <mxGeometry x="353.25" y="511" width="78" height="78" as="geometry"/>
                </mxCell>
                <mxCell id="93" value="application-anaylytics" style="sketch=0;points=[[0,0,0],[0.25,0,0],[0.5,0,0],[0.75,0,0],[1,0,0],[0,1,0],[0.25,1,0],[0.5,1,0],[0.75,1,0],[1,1,0],[0,0.25,0],[0,0.5,0],[0,0.75,0],[1,0.25,0],[1,0.5,0],[1,0.75,0]];outlineConnect=0;fontColor=#99FF33;gradientColor=#945DF2;gradientDirection=north;fillColor=#5A30B5;strokeColor=none;dashed=0;verticalLabelPosition=bottom;verticalAlign=top;align=center;html=1;fontSize=12;fontStyle=0;aspect=fixed;shape=mxgraph.aws4.resourceIcon;resIcon=mxgraph.aws4.analytics;dashPattern=1 1;labelBackgroundColor=none;" vertex="1" parent="1">
                    <mxGeometry x="431.25" y="986.5" width="39" height="39" as="geometry"/>
                </mxCell>
                <mxCell id="102" style="edgeStyle=none;html=1;fontColor=#99FF33;strokeColor=#FF9933;" edge="1" parent="1" source="96" target="100">
                    <mxGeometry relative="1" as="geometry"/>
                </mxCell>
                <mxCell id="96" value="database-config" style="sketch=0;points=[[0,0,0],[0.25,0,0],[0.5,0,0],[0.75,0,0],[1,0,0],[0,1,0],[0.25,1,0],[0.5,1,0],[0.75,1,0],[1,1,0],[0,0.25,0],[0,0.5,0],[0,0.75,0],[1,0.25,0],[1,0.5,0],[1,0.75,0]];outlineConnect=0;fontColor=#99FF33;gradientColor=#4D72F3;gradientDirection=north;fillColor=#3334B9;strokeColor=#ffffff;dashed=0;verticalLabelPosition=bottom;verticalAlign=top;align=center;html=1;fontSize=12;fontStyle=0;aspect=fixed;shape=mxgraph.aws4.resourceIcon;resIcon=mxgraph.aws4.documentdb_with_mongodb_compatibility;" vertex="1" parent="1">
                    <mxGeometry x="240" y="360" width="78" height="78" as="geometry"/>
                </mxCell>
                <mxCell id="99" style="edgeStyle=none;html=1;entryX=0.372;entryY=1.154;entryDx=0;entryDy=0;entryPerimeter=0;fontColor=#99FF33;strokeColor=#FF9933;" edge="1" parent="1" source="97" target="96">
                    <mxGeometry relative="1" as="geometry"/>
                </mxCell>
                <mxCell id="97" value="service-config" style="sketch=0;outlineConnect=0;fontColor=#FFFF33;gradientColor=none;fillColor=#B0084D;strokeColor=none;dashed=0;verticalLabelPosition=bottom;verticalAlign=top;align=center;html=1;fontSize=12;fontStyle=0;aspect=fixed;pointerEvents=1;shape=mxgraph.aws4.endpoint;labelBackgroundColor=none;" vertex="1" parent="1">
                    <mxGeometry x="230" y="511" width="78" height="78" as="geometry"/>
                </mxCell>
                <mxCell id="100" value="service-recovery" style="sketch=0;outlineConnect=0;fontColor=#99FF33;gradientColor=none;fillColor=#3F8624;strokeColor=none;dashed=0;verticalLabelPosition=bottom;verticalAlign=top;align=center;html=1;fontSize=12;fontStyle=0;aspect=fixed;pointerEvents=1;shape=mxgraph.aws4.backup_recovery_point_objective;dashPattern=1 1;labelBackgroundColor=none;" vertex="1" parent="1">
                    <mxGeometry x="720" y="195.5" width="60.78" height="60" as="geometry"/>
                </mxCell>
                <mxCell id="107" value="" style="shape=image;verticalLabelPosition=bottom;labelBackgroundColor=#ffffff;verticalAlign=top;aspect=fixed;imageAspect=0;image=data:image/png,iVBORw0KGgoAAAANSUhEUgAAAQIAAAECCAYAAAAVT9lQAAAACXBIWXMAAAsTAAALEwEAmpwYAAAAGXRFWHRTb2Z0d2FyZQBBZG9iZSBJbWFnZVJlYWR5ccllPAAAG5ZJREFUeNrsXV1onFd6PvMjjSxLnilOSdoEPGENoSxUE9qL0k3xF1qa3BRNIVDJDmh8USil4PHV7s3iEb3ZO49hL3JTPLowyl3k7G7xXnlEs9BlWzIqdGkhuxmVbOOFhEqRZMvS/PS80jvJWJ7v/5zv93ngZGxn5vvO73Oe9z3vOSeztHTVEEJQAgAgnWhnmQTiQgQ1mcoxyGeZ8xoHoP3R/kZ+xAjr6/caUc/x8vI1ynRL5rUdg3yWY1KnJ3lE+6e7/bNQRQAAgAgAAAARAAAAIgAAAEQAAACIAAAAEAEAACACAABABAAAgAgAAAARAAAAIgAAAEQAAACIAAAAEAEAACACAABABAAAgAgAAAARAAAAIgAAAEQAAACIAAAAEAEAACACAABABAAAgAgAAAARAAAAIgAAAEQAAACIAAAAEAEAACACAABABAAAgAgAAAARAAAAIgAAAEQAAACIAAAAEAEAACACAAAcIrO0dLUhP2sydWOQ3wWZtmXaiXg+SzJdkmlL94uGw+HMUIgZ+TknU16m8/Kf8/w/Z+R/Z55v9cyo/nq5XG4qI8SR/POvM5nMIdo/Xu2vAGWZWnn+S5v+EoNMNzmfnYjns8Lk2lD50KOjo5eOj48v9/v9ihzwlweDwYKPjnqCc+fOnXw+efLkdyURHGSz2Y+yuVxnZmbmo3wut4/2j077awLlU4yIoLu+fq8d9RwvL1+jmaAT9bzKfNLHjop8fuc7f1aVH4ZMVZ5llGJ6evrkc29vjz5ITbzF6bsyrdHA+9nP/qWN9g+n/QPIqzFOBECEIAd/jQf+YshZWaEk87NJs1tUCAFQDxBBdAa/wTKNCKAYsexdkemhzON9yqMkhB20GIgAUDf4Szz46zpkvwaQQumSYpFksIEWTA6wfBgOAZRlIsdXV6bbMSGBEUitfCDz30JLQhEAHglAnHqSVxJQnBUuTxWmAhQB4FwB0Az6aUJIYNx30GYTBwARAGY+ADYBkkYA41gAGcA0AEzQHwxeYR+A6hWAbfF8FGhFhLvSQGRAiqeKlgcRAKcqwLhw4cL758+ff9HHQO+MpZMgGqd2uHw/kQLNzgYTBKUgnJGLpH5kPuvoBSCCVJsBPCsuDodDtwO/LdMGD/iun3zI34/Cb9vjPgqerats1+vCDfmuDQQegQjSSgJVJoGii8FPA781NnC1gcmFfBVNJoUaJx1KYYPegZUEEEHaVMCGi1k29Nh9JoUGJQ5lbir2LxT5mTX0kPgAqwb+VEDXAQnsyrQq0+/IQViLkmyWeWnNzs6+l8/nNxU/eoVDpgEogkSrAJrx7JYDezL9LQ22KJeHziAoFAptnsFJ3SwoejSpDpABFEEiSYA88B0bEtiVM+za1NTUz6NOAmdNBpmofHcUPfIKVAGIIIkkQMtiHwtrBxv5AMrz8/MtVgSxAy//XVf0OCwlggiSYwrQkpg43RxkBjqS6k32AcTeW85K5k1x6t/wg0VepQBABLE3Bch+tjogZJUkddLWzrk8hgIyqKEngQjiTAJVJgEz59k2q4BGUuuAYxzqIAIQQZr9AR8I8/V1OqmnkoYIOjYTbvp4xCWYByCCOJJAy8YfcFMOjlTtwZdlbTL5eQU2I0UciCP4hgC+3itg8hWylaspjqMnid8V3qIQydfQRC+DIogDCbQtSGArLaaAhSrY8eEvMNDLQARRJ4GysHYKEgkYfncFJshf4CUcucgrMABMg0iSwGh50EzurlFsALrJM2jI9NDD74hwO6g+KAKQQDJUQdujKoAiABGABBKGJogARAASgCqgkOttlz/D4aYgApBAArEBIgARgASAlsvvL6DKQARhk0DJhgTugwRcmwcdD+YBACKILAlQnEAtyPwkKPa+jSEEIogTCdgFC+0ERAANcRqmm5SbgUAEIIJYoGlBArR3oBYQCYwI4BYrEzrlqJGA+kWAEIgg8mrA7oDRqu47BejMPpnGCWAcN+JuIgRxJwMAIvAzAMnmv2Hxles6NxD1+v25417v2+I0FPeSiRr5a5X7F5h02iEcGAqHYQKQTyAJ0DLhXYuvrOk8XXjs7sPzFiaJoWo2ZVXREOHdttwVwdytCIAIXA0Kq5l+S+cyIfsCblncfbityiRxcb9CEERwBUMJRBAVEhhdP1a0mImrGt9NKsPqkFMlKxT8rjqnYgSqvothFH9klpau0ixWFu4jxcJAk/P53Iz61Vdffa/f779l9sPp6envS7X+kQ5/wP7eXlOqgG+N/m1qakoUZmaE/PfTSs5kfjU3P1/P53L7ft61v7//Tq/Xq8l3mZkdolAo3JydnXWjOEYKyVP77+3t1WSebFWJrIPflkqlJV3tHzFUuF7jcK8D5bM7IoJaTJh9geX1M7NqfzB4adDvv2baCbPZ38hB+InqzMgBOScHwcJZZSXfJ3Iyyf9HI2B/Kp8nNeD5whMuH9nhM3bfzcl3ZTMZN6qj7Gdml0RYHg4G9j4CmSeuB+XtH0GU2G+yFYMxdSICRh24tb5+rxH1HC8vXyP7vyHz2h6TyhU7v4DQEDQ09t7nzKv5+XkxNzcnPv/8c1+OQV4BoFnwNRc/q7tZEZF1etLuXtt/5Bdx8FXyzxiq2z+i/dTgfBoxGFON2PsIxmxzK1u5ppEErN7b80oCTADUQElywiHmIMKIu7PQKnKQsKo66MWBU3Ik0f/bIwk4nWHjhh0Mt+gitgFFfBPRio0UbWgggbawWTen25Clnf6Fx9cYCe1rUAQgAm0mgRVqGl7dEvb76jf5NmTgWXRRBSAC1bCT5jpMAloKWrT5mrZYhbgD+xJABEpBa+nC2om2LRTfqsPOwdsOvlpL01VoLkyZLQw1EIEyDIfDGQqosflaXeVgHHMO2mGND/UE4B8AEehEr99/zSqqjuxzDYOxIew31ZBJUE9pH3JyTHkbQw1EoGpmrkpJYHeqT03xO0n23nBCFik0CUYogghABEGRgJNVgjUN9xM68TVs87XhqYPDsw+2cW8kiEClPC8GKc35cJMFh3lLK8pQAyCCIGcdO3ne1OAgdDLAt3UecpIQ/wAcqCCCQOT5rlC8XMjqwsmpO42U9x8npgEUAYggEHne1OCoc2Jm7KZZDbBqsmub+yl2ooIIFHa0wNUAk48TT3gr5X3HiRqAWQAiUDIr2w1IHWrAqdxPOxHYhVLvgghABH5n5bJwthVXtRowHPoGthE7b6sINmAWgAiCmJXXNHS0msPvpXqm470XdoTZxPACEfjtZE6O6G4ofm9JON852E55v7Fzpm5BMYEI/MLJTLKpIVqNSKAIIlDiH4AaABH4ttGdnNOno6MZDr+3nWbb18GqStqDrEAEQfgG6Hx8Tdt9nZoF3ZT3mVqQJhuQMiJwqgZyudwDDe+uwCxQ0kZQAyAC/WqAUCgUHmh4dwVdQUkbQQ3EFJE4ztyxbyCT2Z+emnoUMhGkUhE4aKNNqAEogkDUQDab/Y2m90MRQA2ACEKeaSrC4Y0+uWz2CxBBJNXAmptr1gAQwSQ4PVDkvvBxkagNiugKlrCS/Gk+rxFEoGimKQtnUYSEDU15gBqwrh+S/FbhxDXsKQAR+EXNxXd1Sc8SuoElUVvN9vdxhDuIwG8nK7mQlFsROgAzTcRhdaPUttBzrRyQMkXgJrY/SrNOKkwJNgmsTiCqwiQAEaiAGwdTlIiglAISMIT1eRA3sbsQRKCio1WEs6PCCbsR63SVhJNAxYZ419J6jwOIIFw10I5YnVUSTAKji2TMTDby1cAvACJQ1tmqESICt3ZuMYlLjtwubQulRjcaGxgyIAJVcOMk1E4EHs2ORA0IumXahgQoaAjxAiAC5UTgFEH5B3Zdfr+WJBJ48uRJzYYEDDgHQQQq5WdZfiy6+ElQnc/texa4LLE3B4gEJBm8CBIAEURVDQThH/BDOI2YkwD5OdogAYCQWVq62mCbV/uge/z48d9ZdLznMF0orE3l890zkpzy2VWZr6Ojo8rx8fGiy589nTl37r1cNjvJbi5znbY81BHN0Je8lmVCnT2H416vfPT06ZL8Y2F6enpUB8+UrTAz08rnco8i1l+1tL8GeG7/EHAy9gNTBP3BoOSGBAhBdcSpqan/8vCzghxMRtyY/6nMs8w3bfQqmH0loiQAaMTohKL2+vo9rVJXSlG3W1V3P/xw43vj/7C8fO2EZWVe2xry97ZwHuT0ta9ApvrZvficz7KXOnVx25IZWpPOBmCfBs1Qz5wrcPHixZPPL7/8kj5oibAWVXNAZ/tryGdZ95hSlNdG0D4Ct/6BoDujVxnX4jX4KPsD6lyfVoeLbMEnAEWguyOWhMNTiMbQDoEIbnv43SX+bTWCBEAOwaZd3WezWYoYxLkMKUZQisDLIAk0eIWDZdY8/nxRDrpWhAigxPn52I4E8vn8T8+dO4czBUAEgcDw8JswJKofm24lImRAZkBX2J/8RMuDbxYKhX/FMACirAgCJwI+/OSOTzJo9/r9uRDblJZB7UK4N2Uq48BRIDAfgctbhM5K9TDQYOLy6rm/sr+398cXisVuRNt8VdZtA10fCFoReDELtsKqECagmp9nDIfD8/1e79ukDng5MAqgo8VeBwkAcSKCUHe5sWReVfAoctQ9lGTQoSW8EPcnkLlTwdIgEJppIOLjKDxLBg2Xx61bgQKPaGnytnzmNpdvlM6SnsqYhJMDRuELAEIlAq/+gbAVwRgZ1GQZhCIyGOESp0XN2YcvAIiMaeA1SCUyB2Dw0VxrMWpTWhF4FSQARIkIDI+/i5Qty2SwGpM2bUToDggAROBLEUQOPMO+yXY3AIAIXGAhSZXFTjcitzvoOgCIwAH8rJ9H2ctNcQYyURjvq+w72EU30taHytSPor67E0RgjXKSK47scPYdUDlvihCDoBKMlkwPZfo/SQY4QVkj8iAC/wpBnG71bfLMZeRyuXdFJvPn8s8Z4X75dFd4W3JNmhogRTm+c7IoAto2DyJQCyNtlcmksLG8fI0+X5B/N7hTk1/BSt52R55+CksW7s9uSCIaZ/9hMBzOZTMZ1EzMiAB23TcEgdBel76BSWQ4lEQgQASx8xF4XTGA8w1oTPpHvpEJiAsR+Nxcg9kTamDFhAjOo4bipQjKqFpApRpgJijt7u42I7S1G0QAIgCCVAMjDAYDMjlpa3cL8QUgAiBtauB5EGF0JRlUUW3RJQIAUK4GJoBiCz6Qv22iBqNJBLDhAJ1q4Cxu8ClQMBUSpAgQTAM14AXkO+hw8BYA0wBImRoYB5381AYZRIcIINGAINXAWb8ByCAiRLCAqgUCVgOTyAATEkwDIIVqAGSQJCJA5BjUgEJl2kI1QxEA6VQD46Cbquuo8XgSAeQc1IDKXai34TyMJxGg0ZKtBgwbNXBfnIap31f4WpgIMA2AGKkBUgI1PiSW9hHcVKQOFmAixI8IDDRNotWAVfRog498O4H8c5P7g4rDYRtYRYCPAIi+Gtjkgf8M+Kg3Q2QyX/h8Ny0pYoNSjIgAAUnJVAM1GzVQM/sfpBKm8vn/zOVyP/WZjZUQr6cHEXjoNGisdKmBVSd3Nl64cOEH8uO6xnykEpmlpasNZuKuqoce93p/JOjEWR/ISfbPPi8FSSnQ3YNRv+yCTJtLXuxaWXcLdCSXj3rbkvXmpn5GhNvVWSH9weCVQb//rcm9MLMvZ/t/d6gUT9pfPu8l+bzXvOYnn8//PJPJHEat/UMAtX9rdJx5WyhcXnl8cNDkI6WEj4b6t/n5+bN5anI+o37AaYXJteGx7jwTQaFQaM3Ozrqpn5Ecb+mqjF6/P7e/t/f+cDg0y/P3JRE4yfPX7Z/LZsWTJ0/ePj46+q4nwszlPpPq4odRa/8QcNL+IyLorq/fayuU9Spm7PKPf/zhM3nii0M6KvOqAzKf9LHjJZ9+625vb6/j5u5ImVeDPnXWKZ8gZHYC8Z0HD/656TCvZ9uf9hI8kp+3PWTrL37ykx+9E7X2D6GvGjp9BCpmbAQVJQDs67lh8r93/c6avMqw5uGnRZx3+A10EYEKRVBMaVhoOWHlsTI5auMxAz7IoObRHgcRaCYCVTa8kbLZk8p7KWHlMVsuvC8H8IbC1xnCfQQiiCAGiiB1RCCRtBDYloVJoLSsrCxqHlSnARrQRARunFU2WEyZGlhMUHnqFuqm4SRmwEO/I4XhdqMSiEDoDSjaVtSh0iLfGgkigZJFeSaGEYeoquCU1kwEqvwEiScCB6G3cQMN9GIY5g8rjVUQQXSIoA0icDx7NhNUHpLaZmcNrPIGorB8E5NwCTQQD0VQ5BkzqWhZzJ5xVQNmpmIghMeqwHFsAU4v0kgE7DBUddxUIokggQ5C8guYhZYriRnQpApKIAK9UGUeXEnabkQ2CVoJKk/Zwv5fU7iS5GYi2hZAooiA0EigSZAk+9TMQag8ZsAFNjDEo0EEKhuCHFD5hMye1YSZBFblCdok0DURgQh8yLOuULgnu9fvv5IQCW1lEuzGrDxWJs6m4jBit+hgiEdDEYwkoxIMB4OXj46OXop5nW8I81WCOzHsvFYmQS3MjOmIXpwoOy79YUmmjkwtEEEw5kH+8PCwFtfK5n35Zl51Uk6NmJWnJcxjBhpBDUQbbAZEhtSuK0QIL8zk5kAEz7My2Ydrqp7X7/ffiuNGEY6FsNqXH6Yt7aU81yxIwDaMOGKrQJ5VmBz4tTP1sPCnX3z2/kw+Owci0GgeaHqe7kFDASt3Lb5SH4u468akPP9kQWpVi98aMlEZN6Jyx4BXApYkUJnUFzPD4flCLgMimFDRHcUSbYGDV+JCAm2Lr9Aa+7ht2Y14eUbOwYLJVyYqG/odm0YPxemyKUnpKET0bXokgVE9POcf6U3nt3af9h+BCExsRsXPuxX10NAxEjBzDm7x6TpxwoaFn+MXk1YJuB46FqZRHM0CM3/P7i9LL/4APgJzVdAW6h037aheYTU8Pc7digRIQsfK18HOwSsW5flLE99IW0wOnurEkQikGqhb+Ecanz4ZPgIRBKsKilEkg4ODgzd6dD+BDQnEzDnYsuj8VJ6Fs+VhErhrVg8Blb9sN65dkgD5P8xOTd40tv8jljtJAyUCVgVrih+7ICLkPKSTeY6Ojv5RWEdB1iy24/r1ERgaylQT1teYV2V5ticQx10H/gbdsArj3nKzxMnOwZYFGcZ2y3wYV57VhfrouRXueGESADnDNoT9GfvXbaLtulHqIGOzuhlWz24ockAcI1Q0592OFFsuSKAkrIPBqlIN7IAInKuCHaEncIbIIBQzgTsczfCLDkigFZfOwSszViRAJxE3XBKHG9nuF3ZEsOGCBNoW6uKmJIG2iDFCuQSVg010RHxdYZ9BJaCBUmIl8lDY7yR0RAIKtuuWFJWN8nrLSlaLMyHEXO9NhQPVL6yk+poLs6AlzFdK1uLqFxhHmLv5qiyDVZ/OQw32seyUq2dnK5UEwCZO3WH+g1QCFQVla9moG7NIyJbL9tRmU3Pk4oJfs4D3D5jVxZYkgZpIAEK7Fp07kU7nCsUZdFUec0adi4Niujxb6iIBP2qp7KN8FYcmTvWss5MJxO27dR5DZzUJbDpRXkwCKxaKyBAJQTbMl3NjXNf4CpLrd5kQ6l7i23nw18j/IP/6qTgNinE663lVAl0/ZfZYTho4Hzs0cdomxF5TPGD9qAErZ2VNBQnE2TkYJdNg1IFaNiffqiIE8ubflu+iZa42D7a2iY1d4dnNEB5OEcpkMge5fP4TH+ZA22d9jMwWWxwdHVWOj48Nh+S2alUmWg2R9XtHuIsgJOJqKDbjrOr9jp1vIG0kEAki4A5EM67QTAbjpDB6zy0Nz9+amZn5YTaTedfHM/xG3N3g69WbJnH/ZTbL6hcvXnRKdGtOBqv8Tp1NDDf3NJAZt6HiqHO+Ycns3dtWCmRsdWAhTSQQGSIIgQx0ga7bqkkiqPisiw4rFz9nGhLJ0aDsjCmfkdJZcPmsNZd7Iqo2A2riOCRl6IcM+Mi02za+jR0TEqC62bCoc/LbVJNIAqH7CCaRgTg9pSduIC/6TZn/qsKwWRUHuhR5drzFaTEAEhj5Cwzh7pi6Ubh4xSMJ1GxMgptmJCNJwM4/ckcSgJFUEogcEYykpdDrQFQNmikqGu7zi8La9E2vuyN9kkHdBQGUxgKfihZk1pykAuhEIQsTkQj+uiSAukg4slHMFDukXhfRPpd+pAIMTTf70jPXQizbdb/k5oMMyKnbsVpa5NWcOvtTbrlRNHLwl9kh+LGFQjoheEkCLZECRPZ4cLaTSSYS20dtHzuZL40Ads812N4O8kq0bTEhTsAnGVQ4/sJNO9IApaXfuzwod37/5ZcvH+zvNzlmwYn/5BkSIALgOl2xIcFGEqIFY68IxjsRmwqvi2AOobTtWDK9SnkKYgstqwJDBHfE+R02czoaykLt+KZHlUd+jkU6xXowGCw4JIGvzRraOiwT+Vw+tSEBKn85bSQQaUVwVh3QgPibpaudbDYrhHuHl1+ZTB2jFcapvKyMiAw2hKabkTKZzG/lx5Lua8no+azy6kLP0u2JovmD37v4D+/+4td5lv9OFNUaq4CuSClidXNQNpPZKRaLjd3d3S53pqqmwbHLA28j5As6zppJTaF2eXVramqqOz093QnqbsLR7lPe1NRQWJ7dly8W3/v7rf/5E/HZ7o8cmkAnBJ/k1QDHk8HS0lVqDLKd4uAUaXI+v5auh4eHl4+Pj9+QkrEyHA4vy3Tew4x4INMnUm10crlcZ3Z21q80pkFbExru/KMLXuhuB1neN7yWVZbzo3w+/4DLObKhQ2n/Xr8/9+Tx43f6/f7bsjwvWn13bn5ePD08FLK9x8vzKyrLzLlzD/K53P5fHTx6PzsYTHxOP5/71eH0VOd/zxcf/PIw94nGYmlrfw2gfHZHRHDylxhkeoGZ3JTBZWeaGQoxc/Ipk6m6yGb3qR9KlXHyqTifI2fWls7KGAyHJUkIJSaEvDgt73iZD+VIOZSD5alM+6SoMqflHUeZP0NvfzrnkctUPCnH6bmP38jXfH7YHwwO5B+JuHe4PIfj33lhJnd5NjN4uScy+/1h5vB4ODw4Hmb2D44HO/LZvYCKEkj7K8KJCBiZBq319XuNqOd4efkaydeGzGs74vk0OJ9GDOr0pN3j0v5y1kf7a2j/rAAAIPUAEQAAACIAAABEAAAAiAAAABABAAAgAgAAQAQAAIAIAAAAEQAAACIAAABEAAAAiAAAABABAAAgAgAAQAQAAIAIAAAAEQAAACIAAABEAAAAiAAAABABAAAgAgAAQAQAAIAIAAAAEQAAACIAAABEAAAAiAAAABABAAAgAgAAQAQAAIAIAAAAEQAAACIAAABEAAAAiAAAABABAAAgAgAAQAQAADhEZmnpakN+GjK1Y5DfGuezG/F8lrlOWzGoU4M/0f7pbf82EYEx1hkAAEgf2v8vwADt4XjtkDObpgAAAABJRU5ErkJggg==;" vertex="1" parent="1">
                    <mxGeometry x="740" y="1040" width="48" height="48" as="geometry"/>
                </mxCell>
                <mxCell id="109" style="edgeStyle=none;html=1;entryX=0.5;entryY=1;entryDx=0;entryDy=0;entryPerimeter=0;fontColor=#FFFF33;strokeColor=#FF9933;" edge="1" parent="1" source="108" target="53gvowDlxKupPZNZGqY5-2">
                    <mxGeometry relative="1" as="geometry"/>
                </mxCell>
                <mxCell id="108" value="os-connector" style="sketch=0;outlineConnect=0;fontColor=#FFFF33;gradientColor=none;fillColor=#D45B07;strokeColor=none;dashed=0;verticalLabelPosition=bottom;verticalAlign=top;align=center;html=1;fontSize=12;fontStyle=0;aspect=fixed;pointerEvents=1;shape=mxgraph.aws4.braket_chip;dashPattern=1 1;labelBackgroundColor=none;" vertex="1" parent="1">
                    <mxGeometry x="43" y="177.5" width="78" height="78" as="geometry"/>
                </mxCell>
            </root>
        </mxGraphModel>
    </diagram>
</mxfile>